<?xml version="1.0" standalone="no"?><!DOCTYPE svg PUBLIC "-//W3C//DTD SVG 1.1//EN" "http://www.w3.org/Graphics/SVG/1.1/DTD/svg11.dtd"><svg t="1502561295729" class="icon" style="" viewBox="0 0 1192 1024" version="1.1" xmlns="http://www.w3.org/2000/svg" p-id="2307" xmlns:xlink="http://www.w3.org/1999/xlink" width="232.8125" height="200"><defs><style type="text/css"></style></defs><path d="M0 288.840933l3.811807-10.754742a74.330245 74.330245 0 0 1 137.088932-10.346335 73.649565 73.649565 0 0 1-9.937927 81.681588c-2.314312 2.586584-4.628623 5.037031-7.079071 8.168159 55.271208 33.897859 110.270144 67.251174 164.860672 100.876761 20.692669 12.796782 41.65761 25.593564 62.350278 37.981938a17.289269 17.289269 0 0 0 27.227196-6.670663q94.342234-171.803606 189.229012-345.104708a76.644557 76.644557 0 0 1-46.694641-66.842766 72.288205 72.288205 0 0 1 22.326301-56.496432A74.602517 74.602517 0 0 1 653.452702 27.732124c31.311275 38.526482 20.011989 83.451356-29.813779 117.349215C639.839104 174.758982 655.630878 204.708898 672.103331 234.386541q68.06799 124.700557 136.81666 249.264979c10.48247 19.331309 17.289269 21.101077 35.939899 9.801791q105.913792-64.66459 211.96372-129.737589l10.346334-6.534527a76.236149 76.236149 0 0 1-24.912884-51.323264 74.466381 74.466381 0 0 1 145.801634-25.457429c0.816816 2.858856 2.04204 5.853847 2.994992 8.712703v26.001972c-11.979966 38.526482-36.756715 60.852783-78.958868 61.125055-1.633632 4.492487-2.994992 8.712703-4.492488 13.613598l-124.019877 425.016529c-5.445439 18.514493-11.84383 23.415388-30.630596 23.415388H239.190916c-20.011989 0-26.138108-4.628623-31.583547-23.415388q-50.370312-172.484286-100.740625-345.376981c-8.984975-31.039003-18.242221-62.078007-27.227196-93.389282a74.194109 74.194109 0 0 1-70.518437-39.751706A182.830621 182.830621 0 0 1 0 314.979041v-26.138108z m0 0zM595.186503 912.615992h333.53315a55.54348 55.54348 0 0 1 12.52451 110.134007 56.904839 56.904839 0 0 1-12.52451 1.225224h-667.0663a55.679616 55.679616 0 0 1-54.454392-37.981938 53.093032 53.093032 0 0 1 19.739717-61.941871 72.424341 72.424341 0 0 1 36.756715-11.299286c110.678551-0.816816 221.084831 0 331.49111 0z m0 0z" fill="#1296db" p-id="2308"></path></svg>