<?xml version="1.0" standalone="no"?><!DOCTYPE svg PUBLIC "-//W3C//DTD SVG 1.1//EN" "http://www.w3.org/Graphics/SVG/1.1/DTD/svg11.dtd"><svg t="1502560785350" class="icon" style="" viewBox="0 0 1024 1024" version="1.1" xmlns="http://www.w3.org/2000/svg" p-id="1590" xmlns:xlink="http://www.w3.org/1999/xlink" width="200" height="200"><defs><style type="text/css"></style></defs><path d="M902.32832 559.230293c-37.44768 11.738453-77.216427 18.05312-118.504107 18.05312-219.019947 0-396.56448-177.547947-396.56448-396.56448 0-17.03936 1.426773-33.72032 3.51232-50.2272 4.468053-35.150507 13.315413-68.932267 26.368-100.570453-37.266773 7.089493-72.92928 18.530987-106.6496 33.600853C140.12416 139.666773 21.203627 310.309547 21.203627 509.003093c0 269.540693 218.538667 488.07936 488.075947 488.07936 229.055147 0 420.758187-158.068053 473.33376-370.88256 8.81664-35.80928 14.001493-73.045333 14.44864-111.47264C967.809707 533.43232 936.1408 548.686507 902.32832 559.230293zM509.279573 905.570987c-219.01312 0-396.561067-177.547947-396.561067-396.567893 0-140.427947 73.19552-263.519573 183.32672-334.001493-0.027307 1.90464-0.29696 3.812693-0.29696 5.717333 0 269.53728 218.538667 488.07936 488.07936 488.07936 31.54944 0 62.293333-3.2768 92.142933-9.00096C816.626347 803.986773 674.88768 905.570987 509.279573 905.570987z" p-id="1591" fill="#1296db"></path></svg>