<?xml version="1.0" standalone="no"?><!DOCTYPE svg PUBLIC "-//W3C//DTD SVG 1.1//EN" "http://www.w3.org/Graphics/SVG/1.1/DTD/svg11.dtd"><svg t="1502560535796" class="icon" style="" viewBox="0 0 1024 1024" version="1.1" xmlns="http://www.w3.org/2000/svg" p-id="3223" xmlns:xlink="http://www.w3.org/1999/xlink" width="200" height="200"><defs><style type="text/css"></style></defs><path d="M512.581393 791.57075C359.198947 791.57075 234.40348 666.774031 234.40348 513.377832 234.40348 359.980384 359.198947 235.184916 512.581393 235.184916 665.982592 235.184916 790.774307 359.980384 790.774307 513.377832 790.774307 666.779031 665.982592 791.57075 512.581393 791.57075M512.581393 179.746382C328.635235 179.746382 178.964945 329.41167 178.964945 513.377832 178.964945 697.328989 328.635235 846.994278 512.581393 846.994278 696.547555 846.994278 846.217845 697.328989 846.217845 513.377832 846.217845 329.41167 696.547555 179.746382 512.581393 179.746382" p-id="3224" fill="#1296db"></path><path d="M512.908971 127.907476C548.005041 127.907476 576.473241 99.444277 576.473241 64.341958 576.473241 29.235887 548.005041 0.77644 512.908971 0.77644 477.811654 0.77644 449.343454 29.240889 449.343454 64.341958 449.343454 99.444277 477.811654 127.907476 512.908971 127.907476" p-id="3225" fill="#1296db"></path><path d="M195.296432 257.23655C211.429121 257.23655 227.453033 250.593678 238.862068 239.194645 250.266102 227.78561 256.898972 211.761698 256.898972 195.634011 256.898972 179.507574 250.266102 163.482411 238.862068 152.073376 227.453033 140.674343 211.429121 134.032722 195.296432 134.032722 179.174997 134.032722 163.144833 140.674343 151.7458 152.073376 140.341766 163.482411 133.708897 179.507574 133.708897 195.634011 133.708897 211.761698 140.341766 227.78561 151.7458 239.194645 163.144833 250.593678 179.174997 257.23655 195.296432 257.23655" p-id="3226" fill="#1296db"></path><path d="M63.565523 451.462717C28.459452 451.462717 4.0e-06 479.038197 4.0e-06 513.055255 4.0e-06 547.072309 28.459452 574.657794 63.565523 574.657794 98.666592 574.657794 127.131041 547.067305 127.131041 513.055255 127.12604 479.038197 98.666592 451.462717 63.565523 451.462717" p-id="3227" fill="#1296db"></path><path d="M151.306943 787.107158C127.252321 811.160532 127.252321 850.168804 151.306943 874.208423 175.360316 898.271798 214.353585 898.271798 238.41821 874.208423 262.471582 850.168804 262.471582 811.160532 238.41821 787.107158 214.358586 763.052534 175.360316 763.052534 151.306943 787.107158" p-id="3228" fill="#1296db"></path><path d="M512.278818 900.806167C478.261764 900.806167 450.68628 928.386648 450.68628 962.403702 450.68628 996.425761 478.261764 1023.999991 512.278818 1023.999991 546.300873 1023.999991 573.880108 996.425761 573.880108 962.403702 573.875107 928.381647 546.290872 900.806167 512.278818 900.806167" p-id="3229" fill="#1296db"></path><path d="M784.942883 787.556018C760.116823 811.595636 760.116823 850.613913 784.942883 874.662283 809.762694 898.725659 850.012519 898.725659 874.827329 874.662283 899.65339 850.613913 899.65839 811.595636 874.827329 787.556018 850.007518 763.497643 809.753942 763.497643 784.942883 787.556018" p-id="3230" fill="#1296db"></path><path d="M961.621016 452.082869C927.608965 452.09287 900.02973 479.673354 900.02973 513.685408 900.02973 547.697461 927.608965 575.277945 961.621016 575.277945 995.643074 575.277945 1023.223555 547.697461 1023.223555 513.685408 1023.218554 479.668353 995.643074 452.082869 961.621016 452.082869" p-id="3231" fill="#1296db"></path><path d="M873.885847 239.634753C897.944221 215.58013 897.944221 176.581859 873.885847 152.523486 849.836227 128.468863 810.81795 128.468863 786.779584 152.523486 762.714956 176.581859 762.724961 215.58013 786.779584 239.634753 810.81795 263.693126 849.836227 263.693126 873.885847 239.634753" p-id="3232" fill="#1296db"></path></svg>